<?xml version="1.0" encoding="utf-8"?>
<svg width="17px" height="16px" viewBox="0 0 17 16" version="1.1" xmlns:xlink="http://www.w3.org/1999/xlink" xmlns="http://www.w3.org/2000/svg">
  <g id="botton-to-top-icon" transform="matrix(1 0 0 -1 0 16)">
    <path d="M0 0L0 1.42222L8.53333 1.42222L8.53333 0L0 0ZM12.0889 0L12.0889 13.2889L10.2444 11.4444L9.24444 12.4444L12.2889 15.5111L12.8 16L13.3111 15.5111L16.3556 12.4444L15.3556 11.4444L13.5111 13.2889L13.5111 0L12.0889 0ZM0 2.84444L0 4.26667L7.11111 4.26667L7.11111 2.84444L0 2.84444ZM0 5.68889L0 7.11111L5.68889 7.11111L5.68889 5.68889L0 5.68889ZM0 8.53333L0 9.95556L4.26667 9.95556L4.26667 8.53333L0 8.53333ZM0 11.3778L0 12.8L2.84444 12.8L2.84444 11.3778L0 11.3778ZM0 14.2222L0 15.6444L1.42222 15.6444L1.42222 14.2222L0 14.2222Z" id="Shape" fill="#20A6D2" stroke="none" />
  </g>
</svg>