<?xml version="1.0" encoding="utf-8"?>
<svg width="14px" height="14px" viewBox="0 0 14 14" version="1.1" xmlns:xlink="http://www.w3.org/1999/xlink" xmlns="http://www.w3.org/2000/svg">
  <g id="filter-icon">
    <path d="M0.246272 0C0.10187 0.0273572 -0.00228932 0.155817 7.7784e-05 0.304496L7.7784e-05 1.21799C0.00126133 1.29649 0.0308522 1.37142 0.0852989 1.42733L4.84821 6.50861L4.84821 11.8754C4.85058 11.9812 4.90858 12.0788 4.99972 12.1323L8.0298 13.9593C8.12212 14.0128 8.23693 14.014 8.33044 13.9604C8.42276 13.9081 8.48195 13.8094 8.48431 13.7023L8.48431 6.50861L13.1999 1.4749C13.2034 1.47134 13.2058 1.46896 13.2093 1.46539L13.2472 1.42733C13.2614 1.41305 13.2744 1.3964 13.2851 1.37975C13.2922 1.3738 13.2981 1.36786 13.304 1.36072C13.3218 1.32147 13.3313 1.27984 13.3324 1.23702C13.3324 1.23107 13.3324 1.22393 13.3324 1.21799C13.3336 1.20252 13.3336 1.18587 13.3324 1.17041L13.3324 0.304496C13.3324 0.136786 13.1963 0 13.0294 0L0.303086 0C0.293617 0 0.284148 0 0.274679 0C0.26521 0 0.255741 0 0.246272 0ZM0.606094 0.608993L12.7264 0.608993L12.7264 1.1038L8.04874 6.08993L5.28379 6.08993L0.606094 1.1038L0.606094 0.608993ZM5.45423 6.69892L7.87829 6.69892L7.87829 13.1695L5.45423 11.7136L5.45423 6.69892Z" id="Shape" fill="#20A6D2" stroke="none" />
  </g>
</svg>