<?xml version="1.0" encoding="utf-8"?>
<svg width="22px" height="16px" viewBox="0 0 22 16" version="1.1" xmlns:xlink="http://www.w3.org/1999/xlink" xmlns="http://www.w3.org/2000/svg">
  <g id="grid_view-icon">
    <path d="M0 0L0 4L6 4L6 0L0 0ZM8 0L8 4L14 4L14 0L8 0ZM16 0L16 4L22 4L22 0L16 0ZM0 6L0 10L6 10L6 6L0 6ZM8 6L8 10L14 10L14 6L8 6ZM16 6L16 10L22 10L22 6L16 6ZM0 12L0 16L6 16L6 12L0 12ZM8 12L8 16L14 16L14 12L8 12ZM16 12L16 16L22 16L22 12L16 12Z" id="Shape" fill="#20A6D2" stroke="none" />
  </g>
</svg>