<?xml version="1.0" encoding="utf-8"?>
<svg width="22px" height="22px" viewBox="0 0 22 22" version="1.1" xmlns:xlink="http://www.w3.org/1999/xlink" xmlns="http://www.w3.org/2000/svg">
  <g id="icons8-home-copy">
    <path d="M11 0L0 6.96152L0 10.1206L0.510417 9.79755L0.666667 9.69735L0.666667 22L21.3333 22L21.3333 9.69867L22 10.1206L22 6.96152L11 0ZM11 0.796356L21.3333 7.33597L21.3333 8.90363L11 2.3627L0.666667 8.90363L0.666667 7.33597L11 0.796356ZM11 3.15906L20.6667 9.27676L20.6667 18.9622C20.4831 18.9622 20.3333 19.1139 20.3333 19.2998C20.3333 19.4857 20.4831 19.6373 20.6667 19.6373L20.6667 21.3249L14 21.3249L14 19.6373C14.1836 19.6373 14.3333 19.4857 14.3333 19.2998C14.3333 19.1139 14.1836 18.9622 14 18.9622L14 12.8867L8 12.8867L8 18.9622C7.81641 18.9622 7.66667 19.1139 7.66667 19.2998C7.66667 19.4857 7.81641 19.6373 8 19.6373L8 21.3249L1.33333 21.3249L1.33333 19.6373C1.51693 19.6373 1.66667 19.4857 1.66667 19.2998C1.66667 19.1139 1.51693 18.9622 1.33333 18.9622L1.33333 9.27544L11 3.15906ZM8 6.47369L8 10.524L14 10.524L14 6.47369L8 6.47369ZM8.66667 7.14875L10.6667 7.14875L10.6667 9.84898L8.66667 9.84898L8.66667 7.14875ZM11.3333 7.14875L13.3333 7.14875L13.3333 9.84898L11.3333 9.84898L11.3333 7.14875ZM8.66667 13.5618L13.3333 13.5618L13.3333 21.3249L8.66667 21.3249L8.66667 13.5618ZM12.1667 17.2746C11.8906 17.2746 11.6667 17.5014 11.6667 17.7809C11.6667 18.0604 11.8906 18.2872 12.1667 18.2872C12.4427 18.2872 12.6667 18.0604 12.6667 17.7809C12.6667 17.5014 12.4427 17.2746 12.1667 17.2746ZM2.66667 18.9622C2.48307 18.9622 2.33333 19.1139 2.33333 19.2998C2.33333 19.4857 2.48307 19.6373 2.66667 19.6373C2.85026 19.6373 3 19.4857 3 19.2998C3 19.1139 2.85026 18.9622 2.66667 18.9622ZM4 18.9622C3.81641 18.9622 3.66667 19.1139 3.66667 19.2998C3.66667 19.4857 3.81641 19.6373 4 19.6373C4.18359 19.6373 4.33333 19.4857 4.33333 19.2998C4.33333 19.1139 4.18359 18.9622 4 18.9622ZM5.33333 18.9622C5.14974 18.9622 5 19.1139 5 19.2998C5 19.4857 5.14974 19.6373 5.33333 19.6373C5.51693 19.6373 5.66667 19.4857 5.66667 19.2998C5.66667 19.1139 5.51693 18.9622 5.33333 18.9622ZM6.66667 18.9622C6.48307 18.9622 6.33333 19.1139 6.33333 19.2998C6.33333 19.4857 6.48307 19.6373 6.66667 19.6373C6.85026 19.6373 7 19.4857 7 19.2998C7 19.1139 6.85026 18.9622 6.66667 18.9622ZM15.3333 18.9622C15.1497 18.9622 15 19.1139 15 19.2998C15 19.4857 15.1497 19.6373 15.3333 19.6373C15.5169 19.6373 15.6667 19.4857 15.6667 19.2998C15.6667 19.1139 15.5169 18.9622 15.3333 18.9622ZM16.6667 18.9622C16.4831 18.9622 16.3333 19.1139 16.3333 19.2998C16.3333 19.4857 16.4831 19.6373 16.6667 19.6373C16.8503 19.6373 17 19.4857 17 19.2998C17 19.1139 16.8503 18.9622 16.6667 18.9622ZM18 18.9622C17.8164 18.9622 17.6667 19.1139 17.6667 19.2998C17.6667 19.4857 17.8164 19.6373 18 19.6373C18.1836 19.6373 18.3333 19.4857 18.3333 19.2998C18.3333 19.1139 18.1836 18.9622 18 18.9622ZM19.3333 18.9622C19.1497 18.9622 19 19.1139 19 19.2998C19 19.4857 19.1497 19.6373 19.3333 19.6373C19.5169 19.6373 19.6667 19.4857 19.6667 19.2998C19.6667 19.1139 19.5169 18.9622 19.3333 18.9622Z" id="Shape" fill="#001B4A" stroke="none" />
  </g>
</svg>