<?xml version="1.0" encoding="utf-8"?>
<svg width="21px" height="15px" viewBox="0 0 21 15" version="1.1" xmlns:xlink="http://www.w3.org/1999/xlink" xmlns="http://www.w3.org/2000/svg">
  <g id="list-icon">
    <path d="M1.5 0C0.671573 0 0 0.671573 0 1.5C0 2.32843 0.671573 3 1.5 3C2.32843 3 3 2.32843 3 1.5C3 0.671573 2.32843 0 1.5 0ZM5.5 0.5L5.5 2.5L20.5 2.5L20.5 0.5L5.5 0.5ZM1.5 6C0.671573 6 0 6.67157 0 7.5C0 8.32843 0.671573 9 1.5 9C2.32843 9 3 8.32843 3 7.5C3 6.67157 2.32843 6 1.5 6ZM5.5 6.5L5.5 8.5L20.5 8.5L20.5 6.5L5.5 6.5ZM1.5 12C0.671573 12 0 12.6716 0 13.5C0 14.3284 0.671573 15 1.5 15C2.32843 15 3 14.3284 3 13.5C3 12.6716 2.32843 12 1.5 12ZM5.5 12.5L5.5 14.5L20.5 14.5L20.5 12.5L5.5 12.5Z" id="Shape" fill="#20A6D2" stroke="none" />
  </g>
</svg>