<?xml version="1.0" encoding="utf-8"?>
<svg width="17px" height="16px" viewBox="0 0 17 16" version="1.1" xmlns:xlink="http://www.w3.org/1999/xlink" xmlns="http://www.w3.org/2000/svg">
  <g id="icons8-logout_rounded_left" transform="matrix(-1 0 0 1 16.200195 0)">
    <path d="M8.10223 0C5.42283 0 3.04408 1.28843 1.57093 3.27152C1.49194 3.37136 1.47419 3.50574 1.5246 3.62226C1.575 3.73877 1.68558 3.819 1.81323 3.83165C1.94088 3.84431 2.0654 3.78739 2.13824 3.68309C3.48382 1.87174 5.65117 0.695461 8.10223 0.695461C12.1897 0.695461 15.4958 3.96081 15.4958 7.9978C15.4958 12.0348 12.1897 15.3001 8.10223 15.3001C5.65117 15.3001 3.4842 14.1239 2.13824 12.3125C2.0654 12.2082 1.94088 12.1513 1.81323 12.1639C1.68558 12.1766 1.575 12.2568 1.5246 12.3733C1.47419 12.4899 1.49194 12.6242 1.57093 12.7241C3.0444 14.7071 5.42283 15.9956 8.10223 15.9956C12.5703 15.9956 16.2 12.4107 16.2 7.9978C16.2 3.58494 12.5703 0 8.10223 0ZM3.16628 4.86483C3.07481 4.86752 2.98799 4.90528 2.92422 4.9701L0.138553 7.72138C0.0511177 7.78725 -0.000134401 7.88969 5.30478e-07 7.9983C0.000135462 8.10692 0.051642 8.20923 0.139241 8.27489L2.92422 11.0255C3.01253 11.1163 3.14366 11.1529 3.26704 11.1212C3.39043 11.0894 3.48678 10.9942 3.51895 10.8724C3.55111 10.7505 3.51406 10.621 3.42208 10.5338L1.20647 8.34553L8.80639 8.34553C8.93336 8.3473 9.05146 8.28141 9.11547 8.1731C9.17948 8.06478 9.17948 7.93081 9.11547 7.8225C9.05146 7.71418 8.93336 7.64829 8.80639 7.65007L1.20647 7.65007L3.42208 5.46181C3.52621 5.36184 3.55752 5.20899 3.50093 5.0769C3.44433 4.94482 3.31143 4.8606 3.16628 4.86483Z" id="Shape" fill="#001B4A" stroke="none" />
  </g>
</svg>