<?xml version="1.0" encoding="utf-8"?>
<svg width="31px" height="22px" viewBox="0 0 31 22" version="1.1" xmlns:xlink="http://www.w3.org/1999/xlink" xmlns="http://www.w3.org/2000/svg">
  <g id="icons8-secured_letter">
    <path d="M1.55 0C0.696289 0 0 0.705915 0 1.57143L0 20.4286C0 21.2941 0.696289 22 1.55 22L29.45 22C30.3037 22 31 21.2941 31 20.4286L31 1.57143C31 0.705915 30.3037 0 29.45 0L1.55 0ZM1.55 1.04762L29.45 1.04762C29.7346 1.04762 29.9667 1.28292 29.9667 1.57143L29.9667 1.82719L16.1055 12.0047C15.7442 12.2706 15.2558 12.2706 14.8945 12.0047L1.03333 1.82719L1.03333 1.57143C1.03333 1.28292 1.26543 1.04762 1.55 1.04762ZM1.03333 3.12035L14.2891 12.8517C14.6503 13.1177 15.0762 13.2507 15.5 13.2507C15.9238 13.2507 16.3497 13.1177 16.7109 12.8517L29.9667 3.12035L29.9667 16.3527L21.4255 11.0757C21.1813 10.9243 20.8624 11.0041 20.7151 11.2517C20.5678 11.4993 20.6445 11.8205 20.8867 11.9719L29.9667 17.5804L29.9667 20.4286C29.9667 20.7171 29.7346 20.9524 29.45 20.9524L1.55 20.9524C1.26543 20.9524 1.03333 20.7171 1.03333 20.4286L1.03333 17.5804L10.1133 11.9719C10.3555 11.8205 10.4342 11.4972 10.2849 11.2517C10.1355 11.0041 9.81868 10.9243 9.57448 11.0757L1.03333 16.3527L1.03333 3.12035ZM2.58333 17.8095C2.29876 17.8095 2.06667 18.0428 2.06667 18.3333L2.06667 19.381C2.06667 19.6715 2.29876 19.9048 2.58333 19.9048C2.8679 19.9048 3.1 19.6715 3.1 19.381L3.1 18.3333C3.1 18.0428 2.8679 17.8095 2.58333 17.8095ZM5.16667 17.8095C4.8821 17.8095 4.65 18.0428 4.65 18.3333L4.65 19.381C4.65 19.6715 4.8821 19.9048 5.16667 19.9048C5.45124 19.9048 5.68333 19.6715 5.68333 19.381L5.68333 18.3333C5.68333 18.0428 5.45124 17.8095 5.16667 17.8095ZM7.75 17.8095C7.46543 17.8095 7.23333 18.0428 7.23333 18.3333L7.23333 19.381C7.23333 19.6715 7.46543 19.9048 7.75 19.9048C8.03457 19.9048 8.26667 19.6715 8.26667 19.381L8.26667 18.3333C8.26667 18.0428 8.03457 17.8095 7.75 17.8095ZM10.3333 17.8095C10.0488 17.8095 9.81667 18.0428 9.81667 18.3333L9.81667 19.381C9.81667 19.6715 10.0488 19.9048 10.3333 19.9048C10.6179 19.9048 10.85 19.6715 10.85 19.381L10.85 18.3333C10.85 18.0428 10.6179 17.8095 10.3333 17.8095ZM12.9167 17.8095C12.6321 17.8095 12.4 18.0428 12.4 18.3333L12.4 19.381C12.4 19.6715 12.6321 19.9048 12.9167 19.9048C13.2012 19.9048 13.4333 19.6715 13.4333 19.381L13.4333 18.3333C13.4333 18.0428 13.2012 17.8095 12.9167 17.8095ZM15.5 17.8095C15.2154 17.8095 14.9833 18.0428 14.9833 18.3333L14.9833 19.381C14.9833 19.6715 15.2154 19.9048 15.5 19.9048C15.7846 19.9048 16.0167 19.6715 16.0167 19.381L16.0167 18.3333C16.0167 18.0428 15.7846 17.8095 15.5 17.8095ZM18.0833 17.8095C17.7988 17.8095 17.5667 18.0428 17.5667 18.3333L17.5667 19.381C17.5667 19.6715 17.7988 19.9048 18.0833 19.9048C18.3679 19.9048 18.6 19.6715 18.6 19.381L18.6 18.3333C18.6 18.0428 18.3679 17.8095 18.0833 17.8095ZM20.6667 17.8095C20.3821 17.8095 20.15 18.0428 20.15 18.3333L20.15 19.381C20.15 19.6715 20.3821 19.9048 20.6667 19.9048C20.9512 19.9048 21.1833 19.6715 21.1833 19.381L21.1833 18.3333C21.1833 18.0428 20.9512 17.8095 20.6667 17.8095ZM23.25 17.8095C22.9654 17.8095 22.7333 18.0428 22.7333 18.3333L22.7333 19.381C22.7333 19.6715 22.9654 19.9048 23.25 19.9048C23.5346 19.9048 23.7667 19.6715 23.7667 19.381L23.7667 18.3333C23.7667 18.0428 23.5346 17.8095 23.25 17.8095ZM25.8333 17.8095C25.5488 17.8095 25.3167 18.0428 25.3167 18.3333L25.3167 19.381C25.3167 19.6715 25.5488 19.9048 25.8333 19.9048C26.1179 19.9048 26.35 19.6715 26.35 19.381L26.35 18.3333C26.35 18.0428 26.1179 17.8095 25.8333 17.8095ZM28.4167 17.8095C28.1321 17.8095 27.9 18.0428 27.9 18.3333L27.9 19.381C27.9 19.6715 28.1321 19.9048 28.4167 19.9048C28.7012 19.9048 28.9333 19.6715 28.9333 19.381L28.9333 18.3333C28.9333 18.0428 28.7012 17.8095 28.4167 17.8095Z" id="Shape" fill="#757575" stroke="none" />
  </g>
</svg>