<?xml version="1.0" encoding="utf-8"?>
<svg width="16px" height="16px" viewBox="0 0 16 16" version="1.1" xmlns:xlink="http://www.w3.org/1999/xlink" xmlns="http://www.w3.org/2000/svg">
  <g id="search-icon">
    <path d="M6.3394 0C2.84195 0 0 2.77722 0 6.19502C0 9.61281 2.84195 12.39 6.3394 12.39C7.72323 12.39 9.00218 11.9544 10.0452 11.2171L14.9512 16L16 14.9751L11.1522 10.2263C12.1049 9.14164 12.6788 7.73381 12.6788 6.19502C12.6788 2.77722 9.83685 0 6.3394 0ZM6.3394 0.728826C9.43336 0.728826 11.933 3.17153 11.933 6.19502C11.933 9.21851 9.43336 11.6612 6.3394 11.6612C3.24545 11.6612 0.745812 9.21851 0.745812 6.19502C0.745812 3.17153 3.24545 0.728826 6.3394 0.728826Z" id="Shape" fill="#757575" stroke="none" />
  </g>
</svg>